<svg width="311" height="103" viewBox="0 0 311 103" fill="none" xmlns="http://www.w3.org/2000/svg">
<path d="M4.275 79V73.965L13.49 71.78L12.065 73.87V17.82L13.775 20.005L4.275 18.01V12.975L29.545 12.5V17.535L20.14 20.005L21.755 17.82V43.185L20.14 41.57H55.29L53.58 43.185V17.82L55.29 19.91L45.79 18.01V12.975L71.155 12.5V17.535L61.845 19.91L63.365 17.82V73.87L61.845 71.78L71.155 73.965V79H45.79V73.965L55.005 71.78L53.58 73.87V47.08L55.29 48.695H20.14L21.755 47.08V73.87L20.33 71.78L29.545 73.965V79H4.275ZM100.16 79.95C95.7904 79.95 91.9271 79 88.5704 77.1C85.2771 75.1367 82.6804 72.2867 80.7804 68.55C78.9438 64.75 78.0254 60.1267 78.0254 54.68C78.0254 49.1067 78.9754 44.325 80.8754 40.335C82.8388 36.2817 85.5938 33.1783 89.1404 31.025C92.7504 28.8083 96.9621 27.7 101.775 27.7C106.399 27.7 110.167 28.65 113.08 30.55C116.057 32.45 118.242 35.0783 119.635 38.435C121.092 41.7283 121.82 45.4967 121.82 49.74C121.82 50.5633 121.789 51.3867 121.725 52.21C121.662 53.0333 121.567 53.9833 121.44 55.06H85.4354V48.505H112.89L112.035 49.075C112.099 46.4783 111.782 44.1033 111.085 41.95C110.389 39.7967 109.217 38.0867 107.57 36.82C105.924 35.49 103.739 34.825 101.015 34.825C98.0388 34.825 95.5688 35.6483 93.6054 37.295C91.6421 38.8783 90.1854 41.0633 89.2354 43.85C88.2854 46.6367 87.8104 49.835 87.8104 53.445C87.8104 57.3083 88.3488 60.6967 89.4254 63.61C90.5021 66.46 92.1171 68.7083 94.2704 70.355C96.4871 71.9383 99.2104 72.73 102.44 72.73C104.72 72.73 107.19 72.2867 109.85 71.4C112.574 70.5133 115.36 69.1833 118.21 67.41L121.535 72.635C117.989 75.105 114.379 76.9417 110.705 78.145C107.095 79.3483 103.58 79.95 100.16 79.95ZM125.18 101.23L126.035 94.39C126.859 94.5167 127.619 94.6117 128.315 94.675C129.075 94.7383 129.772 94.77 130.405 94.77C133.382 94.77 135.789 94.105 137.625 92.775C139.525 91.445 141.14 89.45 142.47 86.79C143.8 84.13 145.13 80.7733 146.46 76.72L146.175 80.14L128.22 34.16L129.36 35.11L123.375 33.97V28.935L145.13 28.27V33.305L137.245 34.825L137.815 33.875L151.305 72.635L149.025 72.16L161.66 34.065L162.325 35.11L154.535 33.97V28.935L175.435 28.27V33.305L168.975 34.92L170.495 33.97L154.155 79.095C152.952 82.3883 151.685 85.4283 150.355 88.215C149.025 91.0017 147.505 93.4083 145.795 95.435C144.085 97.4617 142.027 99.0133 139.62 100.09C137.277 101.23 134.459 101.8 131.165 101.8C129.455 101.8 127.46 101.61 125.18 101.23Z" fill="#727272"/>
<path d="M4.275 79H3.775V79.5H4.275V79ZM4.275 73.965L4.15964 73.4785L3.775 73.5697V73.965H4.275ZM13.49 71.78L13.9031 72.0617L14.6298 70.9959L13.3746 71.2935L13.49 71.78ZM12.065 73.87H11.565V75.4909L12.4781 74.1517L12.065 73.87ZM12.065 17.82L12.4588 17.5118L11.565 16.3698V17.82H12.065ZM13.775 20.005L13.6722 20.4943L15.0133 20.7759L14.1688 19.6968L13.775 20.005ZM4.275 18.01H3.775V18.4159L4.17224 18.4993L4.275 18.01ZM4.275 12.975L4.2656 12.4751L3.775 12.4843V12.975H4.275ZM29.545 12.5H30.045V11.9905L29.5356 12.0001L29.545 12.5ZM29.545 17.535L29.672 18.0186L30.045 17.9206V17.535H29.545ZM20.14 20.005L19.7379 19.7078L18.8944 20.8491L20.267 20.4886L20.14 20.005ZM21.755 17.82H22.255V16.3023L21.3529 17.5228L21.755 17.82ZM21.755 43.185L21.4014 43.5386L22.255 44.3921V43.185H21.755ZM20.14 41.57V41.07H18.9329L19.7864 41.9235L20.14 41.57ZM55.29 41.57L55.6333 41.9335L56.5476 41.07H55.29V41.57ZM53.58 43.185H53.08V44.345L53.9233 43.5485L53.58 43.185ZM53.58 17.82L53.967 17.5034L53.08 16.4193V17.82H53.58ZM55.29 19.91L55.1919 20.4003L56.5612 20.6741L55.677 19.5934L55.29 19.91ZM45.79 18.01H45.29V18.4199L45.6919 18.5003L45.79 18.01ZM45.79 12.975L45.7806 12.4751L45.29 12.4843V12.975H45.79ZM71.155 12.5H71.655V11.9905L71.1456 12.0001L71.155 12.5ZM71.155 17.535L71.2786 18.0195L71.655 17.9235V17.535H71.155ZM61.845 19.91L61.4406 19.6159L60.6252 20.7372L61.9686 20.3945L61.845 19.91ZM63.365 17.82H63.865V16.2824L62.9606 17.5259L63.365 17.82ZM63.365 73.87L62.9606 74.1641L63.865 75.4076V73.87H63.365ZM61.845 71.78L61.9592 71.2932L60.6491 70.9857L61.4406 72.0741L61.845 71.78ZM71.155 73.965H71.655V73.5688L71.2692 73.4782L71.155 73.965ZM71.155 79V79.5H71.655V79H71.155ZM45.79 79H45.29V79.5H45.79V79ZM45.79 73.965L45.6746 73.4785L45.29 73.5697V73.965H45.79ZM55.005 71.78L55.4181 72.0617L56.1448 70.9959L54.8896 71.2935L55.005 71.78ZM53.58 73.87H53.08V75.4909L53.9931 74.1517L53.58 73.87ZM53.58 47.08L53.9233 46.7165L53.08 45.92V47.08H53.58ZM55.29 48.695V49.195H56.5476L55.6333 48.3315L55.29 48.695ZM20.14 48.695L19.7864 48.3414L18.9329 49.195H20.14V48.695ZM21.755 47.08H22.255V45.8729L21.4014 46.7264L21.755 47.08ZM21.755 73.87L21.3419 74.1517L22.255 75.4909V73.87H21.755ZM20.33 71.78L20.4454 71.2935L19.1902 70.9959L19.9169 72.0617L20.33 71.78ZM29.545 73.965H30.045V73.5697L29.6604 73.4785L29.545 73.965ZM29.545 79V79.5H30.045V79H29.545ZM4.275 79H4.775V73.965H4.275H3.775V79H4.275ZM4.275 73.965L4.39036 74.4515L13.6054 72.2665L13.49 71.78L13.3746 71.2935L4.15964 73.4785L4.275 73.965ZM13.49 71.78L13.0769 71.4983L11.6519 73.5883L12.065 73.87L12.4781 74.1517L13.9031 72.0617L13.49 71.78ZM12.065 73.87H12.565V17.82H12.065H11.565V73.87H12.065ZM12.065 17.82L11.6712 18.1281L13.3812 20.3131L13.775 20.005L14.1688 19.6968L12.4588 17.5118L12.065 17.82ZM13.775 20.005L13.8778 19.5157L4.37776 17.5207L4.275 18.01L4.17224 18.4993L13.6722 20.4943L13.775 20.005ZM4.275 18.01H4.775V12.975H4.275H3.775V18.01H4.275ZM4.275 12.975L4.2844 13.4749L29.5544 12.9999L29.545 12.5L29.5356 12.0001L4.2656 12.4751L4.275 12.975ZM29.545 12.5H29.045V17.535H29.545H30.045V12.5H29.545ZM29.545 17.535L29.418 17.0514L20.013 19.5214L20.14 20.005L20.267 20.4886L29.672 18.0186L29.545 17.535ZM20.14 20.005L20.5421 20.3022L22.1571 18.1172L21.755 17.82L21.3529 17.5228L19.7379 19.7078L20.14 20.005ZM21.755 17.82H21.255V43.185H21.755H22.255V17.82H21.755ZM21.755 43.185L22.1086 42.8314L20.4936 41.2164L20.14 41.57L19.7864 41.9235L21.4014 43.5386L21.755 43.185ZM20.14 41.57V42.07H55.29V41.57V41.07H20.14V41.57ZM55.29 41.57L54.9467 41.2065L53.2367 42.8215L53.58 43.185L53.9233 43.5485L55.6333 41.9335L55.29 41.57ZM53.58 43.185H54.08V17.82H53.58H53.08V43.185H53.58ZM53.58 17.82L53.193 18.1366L54.903 20.2266L55.29 19.91L55.677 19.5934L53.967 17.5034L53.58 17.82ZM55.29 19.91L55.3881 19.4197L45.8881 17.5197L45.79 18.01L45.6919 18.5003L55.1919 20.4003L55.29 19.91ZM45.79 18.01H46.29V12.975H45.79H45.29V18.01H45.79ZM45.79 12.975L45.7994 13.4749L71.1644 12.9999L71.155 12.5L71.1456 12.0001L45.7806 12.4751L45.79 12.975ZM71.155 12.5H70.655V17.535H71.155H71.655V12.5H71.155ZM71.155 17.535L71.0314 17.0505L61.7214 19.4255L61.845 19.91L61.9686 20.3945L71.2786 18.0195L71.155 17.535ZM61.845 19.91L62.2494 20.2041L63.7694 18.1141L63.365 17.82L62.9606 17.5259L61.4406 19.6159L61.845 19.91ZM63.365 17.82H62.865V73.87H63.365H63.865V17.82H63.365ZM63.365 73.87L63.7694 73.5759L62.2494 71.4859L61.845 71.78L61.4406 72.0741L62.9606 74.1641L63.365 73.87ZM61.845 71.78L61.7308 72.2668L71.0408 74.4518L71.155 73.965L71.2692 73.4782L61.9592 71.2932L61.845 71.78ZM71.155 73.965H70.655V79H71.155H71.655V73.965H71.155ZM71.155 79V78.5H45.79V79V79.5H71.155V79ZM45.79 79H46.29V73.965H45.79H45.29V79H45.79ZM45.79 73.965L45.9054 74.4515L55.1204 72.2665L55.005 71.78L54.8896 71.2935L45.6746 73.4785L45.79 73.965ZM55.005 71.78L54.5919 71.4983L53.1669 73.5883L53.58 73.87L53.9931 74.1517L55.4181 72.0617L55.005 71.78ZM53.58 73.87H54.08V47.08H53.58H53.08V73.87H53.58ZM53.58 47.08L53.2367 47.4435L54.9467 49.0585L55.29 48.695L55.6333 48.3315L53.9233 46.7165L53.58 47.08ZM55.29 48.695V48.195H20.14V48.695V49.195H55.29V48.695ZM20.14 48.695L20.4936 49.0486L22.1086 47.4336L21.755 47.08L21.4014 46.7264L19.7864 48.3414L20.14 48.695ZM21.755 47.08H21.255V73.87H21.755H22.255V47.08H21.755ZM21.755 73.87L22.1681 73.5883L20.7431 71.4983L20.33 71.78L19.9169 72.0617L21.3419 74.1517L21.755 73.87ZM20.33 71.78L20.2146 72.2665L29.4296 74.4515L29.545 73.965L29.6604 73.4785L20.4454 71.2935L20.33 71.78ZM29.545 73.965H29.045V79H29.545H30.045V73.965H29.545ZM29.545 79V78.5H4.275V79V79.5H29.545V79ZM88.5704 77.1L88.3143 77.5296L88.3241 77.5351L88.5704 77.1ZM80.7804 68.55L80.3302 68.7676L80.3347 68.7766L80.7804 68.55ZM80.8754 40.335L80.4254 40.117L80.424 40.12L80.8754 40.335ZM89.1404 31.025L89.3999 31.4524L89.4021 31.4511L89.1404 31.025ZM113.08 30.55L112.807 30.9688L112.811 30.9715L113.08 30.55ZM119.635 38.435L119.174 38.6267L119.178 38.6373L119.635 38.435ZM121.725 52.21L122.224 52.2483L121.725 52.21ZM121.44 55.06V55.56H121.885L121.937 55.1184L121.44 55.06ZM85.4354 55.06H84.9354V55.56H85.4354V55.06ZM85.4354 48.505V48.005H84.9354V48.505H85.4354ZM112.89 48.505L113.168 48.921L114.542 48.005H112.89V48.505ZM112.035 49.075L111.536 49.0628L111.512 50.0248L112.313 49.491L112.035 49.075ZM111.085 41.95L111.561 41.7961L111.085 41.95ZM107.57 36.82L107.256 37.2091L107.266 37.2163L107.57 36.82ZM93.6054 37.295L93.9194 37.6843L93.9267 37.6781L93.6054 37.295ZM89.2354 43.85L89.7087 44.0113L89.2354 43.85ZM89.4254 63.61L88.9564 63.7833L88.9577 63.7867L89.4254 63.61ZM94.2704 70.355L93.9667 70.7522L93.9732 70.7571L93.9798 70.7619L94.2704 70.355ZM109.85 71.4L109.696 70.9246L109.692 70.9257L109.85 71.4ZM118.21 67.41L118.632 67.1416L118.367 66.724L117.946 66.9855L118.21 67.41ZM121.535 72.635L121.821 73.0453L122.215 72.7712L121.957 72.3666L121.535 72.635ZM110.705 78.145L110.55 77.6698L110.547 77.6707L110.705 78.145ZM100.16 79.95V79.45C95.8651 79.45 92.0887 78.5169 88.8167 76.6649L88.5704 77.1L88.3241 77.5351C91.7655 79.4831 95.7158 80.45 100.16 80.45V79.95ZM88.5704 77.1L88.8265 76.6705C85.6217 74.76 83.0875 71.984 81.2261 68.3234L80.7804 68.55L80.3347 68.7766C82.2734 72.5893 84.9324 75.5133 88.3144 77.5295L88.5704 77.1ZM80.7804 68.55L81.2306 68.3324C79.4348 64.617 78.5254 60.0724 78.5254 54.68H78.0254H77.5254C77.5254 60.1809 78.4527 64.883 80.3303 68.7676L80.7804 68.55ZM78.0254 54.68H78.5254C78.5254 49.1622 79.4661 44.4576 81.3269 40.55L80.8754 40.335L80.424 40.12C78.4848 44.1924 77.5254 49.0511 77.5254 54.68H78.0254ZM80.8754 40.335L81.3254 40.553C83.2505 36.5786 85.9426 33.5515 89.3999 31.4524L89.1404 31.025L88.8809 30.5976C85.2449 32.8052 82.427 35.9847 80.4254 40.117L80.8754 40.335ZM89.1404 31.025L89.4021 31.4511C92.9231 29.2891 97.0416 28.2 101.775 28.2V27.7V27.2C96.8826 27.2 92.5778 28.3276 88.8788 30.5989L89.1404 31.025ZM101.775 27.7V28.2C106.333 28.2 109.998 29.1366 112.807 30.9688L113.08 30.55L113.354 30.1312C110.336 28.1634 106.464 27.2 101.775 27.2V27.7ZM113.08 30.55L112.811 30.9715C115.699 32.8147 117.818 35.3616 119.174 38.6267L119.635 38.435L120.097 38.2433C118.666 34.7951 116.415 32.0853 113.349 30.1285L113.08 30.55ZM119.635 38.435L119.178 38.6373C120.602 41.8565 121.32 45.5541 121.32 49.74H121.82H122.32C122.32 45.4393 121.582 41.6001 120.093 38.2327L119.635 38.435ZM121.82 49.74H121.32C121.32 50.5505 121.289 51.361 121.227 52.1716L121.725 52.21L122.224 52.2483C122.288 51.4123 122.32 50.5762 122.32 49.74H121.82ZM121.725 52.21L121.227 52.1716C121.164 52.9866 121.07 53.9297 120.944 55.0016L121.44 55.06L121.937 55.1184C122.064 54.037 122.16 53.0801 122.224 52.2483L121.725 52.21ZM121.44 55.06V54.56H85.4354V55.06V55.56H121.44V55.06ZM85.4354 55.06H85.9354V48.505H85.4354H84.9354V55.06H85.4354ZM85.4354 48.505V49.005H112.89V48.505V48.005H85.4354V48.505ZM112.89 48.505L112.613 48.089L111.758 48.659L112.035 49.075L112.313 49.491L113.168 48.921L112.89 48.505ZM112.035 49.075L112.535 49.0872C112.6 46.4424 112.278 44.0103 111.561 41.7961L111.085 41.95L110.61 42.1039C111.287 44.1964 111.598 46.5143 111.536 49.0628L112.035 49.075ZM111.085 41.95L111.561 41.7961C110.836 39.5555 109.609 37.7575 107.875 36.4237L107.57 36.82L107.266 37.2163C108.825 38.4158 109.941 40.0378 110.61 42.1039L111.085 41.95ZM107.57 36.82L107.885 36.431C106.126 35.0108 103.82 34.325 101.015 34.325V34.825V35.325C103.658 35.325 105.721 35.9692 107.256 37.209L107.57 36.82ZM101.015 34.825V34.325C97.9413 34.325 95.3517 35.1778 93.2841 36.9119L93.6054 37.295L93.9267 37.6781C95.7858 36.1189 98.1363 35.325 101.015 35.325V34.825ZM93.6054 37.295L93.2916 36.9058C91.243 38.5578 89.7375 40.8277 88.7622 43.6887L89.2354 43.85L89.7087 44.0113C90.6334 41.2989 92.0412 39.1988 93.9193 37.6842L93.6054 37.295ZM89.2354 43.85L88.7622 43.6887C87.791 46.5375 87.3104 49.7921 87.3104 53.445H87.8104H88.3104C88.3104 49.8779 88.7799 46.7358 89.7087 44.0113L89.2354 43.85ZM87.8104 53.445H87.3104C87.3104 57.3536 87.8549 60.8028 88.9564 63.7833L89.4254 63.61L89.8944 63.4367C88.8426 60.5905 88.3104 57.2631 88.3104 53.445H87.8104ZM89.4254 63.61L88.9577 63.7867C90.0632 66.7129 91.7303 69.042 93.9667 70.7522L94.2704 70.355L94.5742 69.9578C92.5039 68.3747 90.941 66.2071 89.8932 63.4333L89.4254 63.61ZM94.2704 70.355L93.9798 70.7619C96.2961 72.4164 99.1261 73.23 102.44 73.23V72.73V72.23C99.2948 72.23 96.6781 71.4603 94.5611 69.9481L94.2704 70.355ZM102.44 72.73V73.23C104.785 73.23 107.309 72.7742 110.009 71.8743L109.85 71.4L109.692 70.9257C107.072 71.7991 104.656 72.23 102.44 72.23V72.73ZM109.85 71.4L110.005 71.8754C112.773 70.9743 115.596 69.6256 118.475 67.8345L118.21 67.41L117.946 66.9855C115.125 68.741 112.375 70.0523 109.696 70.9246L109.85 71.4ZM118.21 67.41L117.789 67.6784L121.114 72.9034L121.535 72.635L121.957 72.3666L118.632 67.1416L118.21 67.41ZM121.535 72.635L121.25 72.2247C117.738 74.6701 114.172 76.4833 110.55 77.6698L110.705 78.145L110.861 78.6202C114.586 77.4 118.239 75.5399 121.821 73.0453L121.535 72.635ZM110.705 78.145L110.547 77.6707C106.983 78.8589 103.521 79.45 100.16 79.45V79.95V80.45C103.64 80.45 107.208 79.8378 110.864 78.6193L110.705 78.145ZM125.18 101.23L124.684 101.168L124.625 101.644L125.098 101.723L125.18 101.23ZM126.035 94.39L126.111 93.8958L125.603 93.8176L125.539 94.328L126.035 94.39ZM128.315 94.675L128.27 95.173L128.274 95.1733L128.315 94.675ZM137.625 92.775L137.339 92.3653L137.332 92.37L137.625 92.775ZM142.47 86.79L142.023 86.5664L142.47 86.79ZM146.46 76.72L146.959 76.7615L145.985 76.5641L146.46 76.72ZM146.175 80.14L145.71 80.3219L146.674 80.1815L146.175 80.14ZM128.22 34.16L128.54 33.7759L127.755 34.3419L128.22 34.16ZM129.36 35.11L129.267 35.6012L131.165 35.9626L129.68 34.7259L129.36 35.11ZM123.375 33.97H122.875V34.3837L123.282 34.4612L123.375 33.97ZM123.375 28.935L123.36 28.4352L122.875 28.4501V28.935H123.375ZM145.13 28.27H145.63V27.7545L145.115 27.7702L145.13 28.27ZM145.13 33.305L145.225 33.796L145.63 33.7178V33.305H145.13ZM137.245 34.825L136.817 34.5677L136.24 35.5279L137.34 35.316L137.245 34.825ZM137.815 33.875L138.288 33.7106L137.936 32.7015L137.387 33.6177L137.815 33.875ZM151.305 72.635L151.203 73.1245L152.068 73.3046L151.778 72.4706L151.305 72.635ZM149.025 72.16L148.551 72.0026L148.374 72.5351L148.923 72.6495L149.025 72.16ZM161.66 34.065L162.082 33.7966L161.517 32.9086L161.186 33.9076L161.66 34.065ZM162.325 35.11L162.253 35.6047L163.333 35.7629L162.747 34.8416L162.325 35.11ZM154.535 33.97H154.035V34.4022L154.463 34.4647L154.535 33.97ZM154.535 28.935L154.519 28.4353L154.035 28.4507V28.935H154.535ZM175.435 28.27H175.935V27.7538L175.419 27.7702L175.435 28.27ZM175.435 33.305L175.557 33.7901L175.935 33.6954V33.305H175.435ZM168.975 34.92L168.71 34.496L169.097 35.4051L168.975 34.92ZM170.495 33.97L170.965 34.1402L171.459 32.7783L170.23 33.546L170.495 33.97ZM154.155 79.095L154.625 79.2666L154.625 79.2652L154.155 79.095ZM150.355 88.215L150.807 88.4304L150.355 88.215ZM139.62 100.09L139.416 99.6336L139.409 99.6369L139.402 99.6404L139.62 100.09ZM125.18 101.23L125.676 101.292L126.531 94.452L126.035 94.39L125.539 94.328L124.684 101.168L125.18 101.23ZM126.035 94.39L125.959 94.8842C126.791 95.0121 127.561 95.1085 128.27 95.173L128.315 94.675L128.361 94.1771C127.676 94.1148 126.926 94.0212 126.111 93.8958L126.035 94.39ZM128.315 94.675L128.274 95.1733C129.045 95.2375 129.756 95.27 130.405 95.27V94.77V94.27C129.788 94.27 129.106 94.2391 128.357 94.1767L128.315 94.675ZM130.405 94.77V95.27C133.455 95.27 135.973 94.5885 137.919 93.18L137.625 92.775L137.332 92.37C135.604 93.6215 133.309 94.27 130.405 94.27V94.77ZM137.625 92.775L137.912 93.1846C139.897 91.7953 141.561 89.7275 142.918 87.0136L142.47 86.79L142.023 86.5664C140.72 89.1725 139.154 91.0947 137.339 92.3654L137.625 92.775ZM142.47 86.79L142.918 87.0136C144.262 84.3246 145.601 80.9434 146.935 76.8759L146.46 76.72L145.985 76.5641C144.66 80.6033 143.339 83.9354 142.023 86.5664L142.47 86.79ZM146.46 76.72L145.962 76.6785L145.677 80.0985L146.175 80.14L146.674 80.1815L146.959 76.7615L146.46 76.72ZM146.175 80.14L146.641 79.9581L128.686 33.9781L128.22 34.16L127.755 34.3419L145.71 80.3219L146.175 80.14ZM128.22 34.16L127.9 34.5441L129.04 35.4941L129.36 35.11L129.68 34.7259L128.54 33.7759L128.22 34.16ZM129.36 35.11L129.454 34.6188L123.469 33.4788L123.375 33.97L123.282 34.4612L129.267 35.6012L129.36 35.11ZM123.375 33.97H123.875V28.935H123.375H122.875V33.97H123.375ZM123.375 28.935L123.391 29.4348L145.146 28.7698L145.13 28.27L145.115 27.7702L123.36 28.4352L123.375 28.935ZM145.13 28.27H144.63V33.305H145.13H145.63V28.27H145.13ZM145.13 33.305L145.036 32.814L137.151 34.334L137.245 34.825L137.34 35.316L145.225 33.796L145.13 33.305ZM137.245 34.825L137.674 35.0822L138.244 34.1322L137.815 33.875L137.387 33.6177L136.817 34.5677L137.245 34.825ZM137.815 33.875L137.343 34.0393L150.833 72.7993L151.305 72.635L151.778 72.4706L138.288 33.7106L137.815 33.875ZM151.305 72.635L151.407 72.1455L149.127 71.6705L149.025 72.16L148.923 72.6495L151.203 73.1245L151.305 72.635ZM149.025 72.16L149.5 72.3174L162.135 34.2224L161.66 34.065L161.186 33.9076L148.551 72.0026L149.025 72.16ZM161.66 34.065L161.238 34.3334L161.903 35.3784L162.325 35.11L162.747 34.8416L162.082 33.7966L161.66 34.065ZM162.325 35.11L162.398 34.6153L154.608 33.4753L154.535 33.97L154.463 34.4647L162.253 35.6047L162.325 35.11ZM154.535 33.97H155.035V28.935H154.535H154.035V33.97H154.535ZM154.535 28.935L154.551 29.4347L175.451 28.7697L175.435 28.27L175.419 27.7702L154.519 28.4353L154.535 28.935ZM175.435 28.27H174.935V33.305H175.435H175.935V28.27H175.435ZM175.435 33.305L175.314 32.8199L168.854 34.4349L168.975 34.92L169.097 35.4051L175.557 33.7901L175.435 33.305ZM168.975 34.92L169.24 35.344L170.76 34.394L170.495 33.97L170.23 33.546L168.71 34.496L168.975 34.92ZM170.495 33.97L170.025 33.7998L153.685 78.9248L154.155 79.095L154.625 79.2652L170.965 34.1402L170.495 33.97ZM154.155 79.095L153.686 78.9234C152.487 82.2038 151.226 85.229 149.904 87.9996L150.355 88.215L150.807 88.4304C152.144 85.6276 153.417 82.5729 154.625 79.2666L154.155 79.095ZM150.355 88.215L149.904 87.9996C148.59 90.754 147.092 93.1233 145.413 95.1126L145.795 95.435L146.177 95.7574C147.919 93.6934 149.461 91.2494 150.807 88.4304L150.355 88.215ZM145.795 95.435L145.413 95.1126C143.751 97.0821 141.754 98.5878 139.416 99.6336L139.62 100.09L139.824 100.546C142.3 99.4389 144.419 97.8412 146.177 95.7574L145.795 95.435ZM139.62 100.09L139.402 99.6404C137.142 100.74 134.402 101.3 131.165 101.3V101.8V102.3C134.515 102.3 137.412 101.72 139.839 100.54L139.62 100.09ZM131.165 101.8V101.3C129.491 101.3 127.524 101.114 125.263 100.737L125.18 101.23L125.098 101.723C127.396 102.106 129.42 102.3 131.165 102.3V101.8Z" fill="#727272"/>
<path d="M222.93 62.66H228.82L228.725 79H180.275V73.965L189.49 71.78L188.065 73.87V17.915L189.395 19.91L180.275 18.01V12.975L197.565 12.5H227.585V28.175H221.79L219.985 18.2L221.885 19.625H196.14L197.755 18.01V43.185L196.14 41.57H220.555V48.505H196.14L197.755 46.605V73.49L196.14 71.875H223.12L221.125 73.49L222.93 62.66ZM256.041 79.95C252.495 79.95 249.296 79 246.446 77.1C243.596 75.1367 241.348 72.2867 239.701 68.55C238.118 64.75 237.326 60.1267 237.326 54.68C237.326 45.6867 239.606 38.9417 244.166 34.445C248.726 29.9483 255.06 27.7 263.166 27.7C264.75 27.7 266.365 27.8267 268.011 28.08C269.721 28.27 271.463 28.5867 273.236 29.03L271.336 30.075V12.12L272.286 13.26L263.831 11.17V6.135L280.836 5.47V73.395L279.601 71.875L287.961 73.87V78.905L273.521 79.57L272.191 71.4L273.236 71.78C270.386 74.5033 267.536 76.5617 264.686 77.955C261.9 79.285 259.018 79.95 256.041 79.95ZM259.556 72.825C261.583 72.825 263.673 72.2867 265.826 71.21C268.043 70.1333 270.291 68.5183 272.571 66.365L271.336 69.405V33.97L272.571 36.25C269.025 35.1733 265.795 34.635 262.881 34.635C257.688 34.635 253.761 36.345 251.101 39.765C248.505 43.1217 247.206 47.8083 247.206 53.825C247.206 57.7517 247.713 61.14 248.726 63.99C249.803 66.84 251.26 69.025 253.096 70.545C254.996 72.065 257.15 72.825 259.556 72.825ZM294.486 73.87C294.486 72.0967 295.056 70.7033 296.196 69.69C297.399 68.6133 298.761 68.075 300.281 68.075C302.117 68.075 303.542 68.6133 304.556 69.69C305.632 70.7033 306.171 72.0967 306.171 73.87C306.171 75.6433 305.569 77.0683 304.366 78.145C303.226 79.1583 301.864 79.665 300.281 79.665C298.507 79.665 297.082 79.1583 296.006 78.145C294.992 77.0683 294.486 75.6433 294.486 73.87Z" fill="#14B8A6"/>
<path d="M222.93 62.66V62.16H222.506L222.437 62.5778L222.93 62.66ZM228.82 62.66L229.32 62.6629L229.323 62.16H228.82V62.66ZM228.725 79V79.5H229.222L229.225 79.0029L228.725 79ZM180.275 79H179.775V79.5H180.275V79ZM180.275 73.965L180.16 73.4785L179.775 73.5697V73.965H180.275ZM189.49 71.78L189.903 72.0617L190.63 70.9959L189.375 71.2935L189.49 71.78ZM188.065 73.87H187.565V75.4909L188.478 74.1517L188.065 73.87ZM188.065 17.915L188.481 17.6376L187.565 16.2636V17.915H188.065ZM189.395 19.91L189.293 20.3995L190.488 20.6485L189.811 19.6326L189.395 19.91ZM180.275 18.01H179.775V18.4166L180.173 18.4995L180.275 18.01ZM180.275 12.975L180.261 12.4752L179.775 12.4885V12.975H180.275ZM197.565 12.5V11.9998L197.551 12.0002L197.565 12.5ZM227.585 12.5H228.085V12H227.585V12.5ZM227.585 28.175V28.675H228.085V28.175H227.585ZM221.79 28.175L221.298 28.264L221.372 28.675H221.79V28.175ZM219.985 18.2L220.285 17.8L219.266 17.0359L219.493 18.289L219.985 18.2ZM221.885 19.625V20.125H223.385L222.185 19.225L221.885 19.625ZM196.14 19.625L195.786 19.2714L194.933 20.125H196.14V19.625ZM197.755 18.01H198.255V16.8029L197.401 17.6564L197.755 18.01ZM197.755 43.185L197.401 43.5386L198.255 44.3921V43.185H197.755ZM196.14 41.57V41.07H194.933L195.786 41.9235L196.14 41.57ZM220.555 41.57H221.055V41.07H220.555V41.57ZM220.555 48.505V49.005H221.055V48.505H220.555ZM196.14 48.505L195.759 48.1812L195.059 49.005H196.14V48.505ZM197.755 46.605H198.255V45.2447L197.374 46.2812L197.755 46.605ZM197.755 73.49L197.401 73.8436L198.255 74.6971V73.49H197.755ZM196.14 71.875V71.375H194.933L195.786 72.2286L196.14 71.875ZM223.12 71.875L223.435 72.2636L224.532 71.375H223.12V71.875ZM221.125 73.49L220.632 73.4078L220.415 74.708L221.44 73.8786L221.125 73.49ZM222.93 62.66V63.16H228.82V62.66V62.16H222.93V62.66ZM228.82 62.66L228.32 62.6571L228.225 78.9971L228.725 79L229.225 79.0029L229.32 62.6629L228.82 62.66ZM228.725 79V78.5H180.275V79V79.5H228.725V79ZM180.275 79H180.775V73.965H180.275H179.775V79H180.275ZM180.275 73.965L180.39 74.4515L189.605 72.2665L189.49 71.78L189.375 71.2935L180.16 73.4785L180.275 73.965ZM189.49 71.78L189.077 71.4983L187.652 73.5883L188.065 73.87L188.478 74.1517L189.903 72.0617L189.49 71.78ZM188.065 73.87H188.565V17.915H188.065H187.565V73.87H188.065ZM188.065 17.915L187.649 18.1924L188.979 20.1873L189.395 19.91L189.811 19.6326L188.481 17.6376L188.065 17.915ZM189.395 19.91L189.497 19.4205L180.377 17.5205L180.275 18.01L180.173 18.4995L189.293 20.3995L189.395 19.91ZM180.275 18.01H180.775V12.975H180.275H179.775V18.01H180.275ZM180.275 12.975L180.289 13.4748L197.579 12.9998L197.565 12.5L197.551 12.0002L180.261 12.4752L180.275 12.975ZM197.565 12.5V13H227.585V12.5V12H197.565V12.5ZM227.585 12.5H227.085V28.175H227.585H228.085V12.5H227.585ZM227.585 28.175V27.675H221.79V28.175V28.675H227.585V28.175ZM221.79 28.175L222.282 28.086L220.477 18.111L219.985 18.2L219.493 18.289L221.298 28.264L221.79 28.175ZM219.985 18.2L219.685 18.6L221.585 20.025L221.885 19.625L222.185 19.225L220.285 17.8L219.985 18.2ZM221.885 19.625V19.125H196.14V19.625V20.125H221.885V19.625ZM196.14 19.625L196.494 19.9786L198.109 18.3636L197.755 18.01L197.401 17.6564L195.786 19.2714L196.14 19.625ZM197.755 18.01H197.255V43.185H197.755H198.255V18.01H197.755ZM197.755 43.185L198.109 42.8314L196.494 41.2164L196.14 41.57L195.786 41.9235L197.401 43.5386L197.755 43.185ZM196.14 41.57V42.07H220.555V41.57V41.07H196.14V41.57ZM220.555 41.57H220.055V48.505H220.555H221.055V41.57H220.555ZM220.555 48.505V48.005H196.14V48.505V49.005H220.555V48.505ZM196.14 48.505L196.521 48.8288L198.136 46.9288L197.755 46.605L197.374 46.2812L195.759 48.1812L196.14 48.505ZM197.755 46.605H197.255V73.49H197.755H198.255V46.605H197.755ZM197.755 73.49L198.109 73.1364L196.494 71.5214L196.14 71.875L195.786 72.2286L197.401 73.8436L197.755 73.49ZM196.14 71.875V72.375H223.12V71.875V71.375H196.14V71.875ZM223.12 71.875L222.805 71.4864L220.81 73.1014L221.125 73.49L221.44 73.8786L223.435 72.2636L223.12 71.875ZM221.125 73.49L221.618 73.5722L223.423 62.7422L222.93 62.66L222.437 62.5778L220.632 73.4078L221.125 73.49ZM246.446 77.1L246.163 77.5118L246.169 77.516L246.446 77.1ZM239.701 68.55L239.24 68.7423L239.244 68.7516L239.701 68.55ZM244.166 34.445L244.517 34.801L244.166 34.445ZM268.011 28.08L267.935 28.5742L267.946 28.5758L267.956 28.5769L268.011 28.08ZM273.236 29.03L273.477 29.4681L274.594 28.854L273.357 28.5449L273.236 29.03ZM271.336 30.075H270.836V30.9206L271.577 30.5131L271.336 30.075ZM271.336 12.12L271.72 11.7999L270.836 10.739V12.12H271.336ZM272.286 13.26L272.166 13.7454L273.646 14.1113L272.67 12.9399L272.286 13.26ZM263.831 11.17H263.331V11.5614L263.711 11.6554L263.831 11.17ZM263.831 6.135L263.812 5.63538L263.331 5.65417V6.135H263.831ZM280.836 5.47H281.336V4.95006L280.817 4.97038L280.836 5.47ZM280.836 73.395L280.448 73.7103L281.336 74.8033V73.395H280.836ZM279.601 71.875L279.717 71.3887L278.284 71.0466L279.213 72.1903L279.601 71.875ZM287.961 73.87H288.461V73.4753L288.077 73.3837L287.961 73.87ZM287.961 78.905L287.984 79.4045L288.461 79.3825V78.905H287.961ZM273.521 79.57L273.028 79.6503L273.099 80.09L273.544 80.0695L273.521 79.57ZM272.191 71.4L272.362 70.9301L271.561 70.6387L271.698 71.4803L272.191 71.4ZM273.236 71.78L273.582 72.1415L274.164 71.5853L273.407 71.3101L273.236 71.78ZM264.686 77.955L264.902 78.4063L264.906 78.4042L264.686 77.955ZM265.826 71.21L265.608 70.7602L265.603 70.7628L265.826 71.21ZM272.571 66.365L273.034 66.5532L272.228 66.0015L272.571 66.365ZM271.336 69.405H270.836L271.799 69.5932L271.336 69.405ZM271.336 33.97L271.776 33.7319L270.836 33.97H271.336ZM272.571 36.25L272.426 36.7284L273.59 37.082L273.011 36.0119L272.571 36.25ZM251.101 39.765L250.707 39.458L250.706 39.4591L251.101 39.765ZM248.726 63.99L248.255 64.1575L248.258 64.1667L248.726 63.99ZM253.096 70.545L252.777 70.9303L252.784 70.9354L253.096 70.545ZM256.041 79.95V79.45C252.59 79.45 249.488 78.5272 246.724 76.684L246.446 77.1L246.169 77.516C249.104 79.4728 252.4 80.45 256.041 80.45V79.95ZM246.446 77.1L246.73 76.6882C243.969 74.7863 241.775 72.0157 240.159 68.3484L239.701 68.55L239.244 68.7516C240.921 72.5577 243.223 75.487 246.163 77.5118L246.446 77.1ZM239.701 68.55L240.163 68.3577C238.612 64.6349 237.826 60.0809 237.826 54.68H237.326H236.826C236.826 60.1725 237.624 64.8651 239.24 68.7423L239.701 68.55ZM237.326 54.68H237.826C237.826 45.7655 240.086 39.1711 244.517 34.801L244.166 34.445L243.815 34.089C239.127 38.7122 236.826 45.6078 236.826 54.68H237.326ZM244.166 34.445L244.517 34.801C248.961 30.4195 255.154 28.2 263.166 28.2V27.7V27.2C254.965 27.2 248.492 29.4772 243.815 34.089L244.166 34.445ZM263.166 27.7V28.2C264.723 28.2 266.312 28.3245 267.935 28.5742L268.011 28.08L268.087 27.5858C266.417 27.3288 264.776 27.2 263.166 27.2V27.7ZM268.011 28.08L267.956 28.5769C269.642 28.7643 271.362 29.0768 273.115 29.5151L273.236 29.03L273.357 28.5449C271.564 28.0965 269.8 27.7757 268.066 27.5831L268.011 28.08ZM273.236 29.03L272.995 28.5919L271.095 29.6369L271.336 30.075L271.577 30.5131L273.477 29.4681L273.236 29.03ZM271.336 30.075H271.836V12.12H271.336H270.836V30.075H271.336ZM271.336 12.12L270.952 12.4401L271.902 13.5801L272.286 13.26L272.67 12.9399L271.72 11.7999L271.336 12.12ZM272.286 13.26L272.406 12.7746L263.951 10.6846L263.831 11.17L263.711 11.6554L272.166 13.7454L272.286 13.26ZM263.831 11.17H264.331V6.135H263.831H263.331V11.17H263.831ZM263.831 6.135L263.851 6.63462L280.856 5.96961L280.836 5.47L280.817 4.97038L263.812 5.63538L263.831 6.135ZM280.836 5.47H280.336V73.395H280.836H281.336V5.47H280.836ZM280.836 73.395L281.224 73.0797L279.989 71.5597L279.601 71.875L279.213 72.1903L280.448 73.7103L280.836 73.395ZM279.601 71.875L279.485 72.3613L287.845 74.3563L287.961 73.87L288.077 73.3837L279.717 71.3887L279.601 71.875ZM287.961 73.87H287.461V78.905H287.961H288.461V73.87H287.961ZM287.961 78.905L287.938 78.4055L273.498 79.0705L273.521 79.57L273.544 80.0695L287.984 79.4045L287.961 78.905ZM273.521 79.57L274.015 79.4897L272.685 71.3197L272.191 71.4L271.698 71.4803L273.028 79.6503L273.521 79.57ZM272.191 71.4L272.02 71.8699L273.065 72.2499L273.236 71.78L273.407 71.3101L272.362 70.9301L272.191 71.4ZM273.236 71.78L272.891 71.4185C270.069 74.1146 267.261 76.1398 264.467 77.5058L264.686 77.955L264.906 78.4042C267.812 76.9836 270.703 74.8921 273.582 72.1415L273.236 71.78ZM264.686 77.955L264.471 77.5038C261.749 78.8029 258.941 79.45 256.041 79.45V79.95V80.45C259.095 80.45 262.05 79.7671 264.902 78.4062L264.686 77.955ZM259.556 72.825V73.325C261.674 73.325 263.84 72.7621 266.05 71.6572L265.826 71.21L265.603 70.7628C263.506 71.8112 261.492 72.325 259.556 72.325V72.825ZM265.826 71.21L266.045 71.6598C268.318 70.5558 270.607 68.9077 272.915 66.7285L272.571 66.365L272.228 66.0015C269.975 68.1289 267.768 69.7109 265.608 70.7602L265.826 71.21ZM272.571 66.365L272.108 66.1768L270.873 69.2168L271.336 69.405L271.799 69.5932L273.034 66.5532L272.571 66.365ZM271.336 69.405H271.836V33.97H271.336H270.836V69.405H271.336ZM271.336 33.97L270.897 34.2081L272.132 36.4881L272.571 36.25L273.011 36.0119L271.776 33.7319L271.336 33.97ZM272.571 36.25L272.716 35.7716C269.135 34.6843 265.855 34.135 262.881 34.135V34.635V35.135C265.734 35.135 268.914 35.6624 272.426 36.7284L272.571 36.25ZM262.881 34.635V34.135C257.568 34.135 253.48 35.8915 250.707 39.458L251.101 39.765L251.496 40.072C254.042 36.7985 257.808 35.135 262.881 35.135V34.635ZM251.101 39.765L250.706 39.4591C248.018 42.9333 246.706 47.7427 246.706 53.825H247.206H247.706C247.706 47.874 248.991 43.31 251.497 40.0709L251.101 39.765ZM247.206 53.825H246.706C246.706 57.7926 247.218 61.2404 248.255 64.1575L248.726 63.99L249.197 63.8225C248.208 61.0396 247.706 57.7107 247.706 53.825H247.206ZM248.726 63.99L248.258 64.1667C249.357 67.0758 250.858 69.3415 252.777 70.9302L253.096 70.545L253.415 70.1598C251.661 68.7085 250.248 66.6042 249.194 63.8133L248.726 63.99ZM253.096 70.545L252.784 70.9354C254.771 72.5255 257.035 73.325 259.556 73.325V72.825V72.325C257.264 72.325 255.221 71.6045 253.409 70.1546L253.096 70.545ZM296.196 69.69L296.528 70.0637L296.529 70.0626L296.196 69.69ZM304.556 69.69L304.192 70.0327L304.202 70.0437L304.213 70.0541L304.556 69.69ZM304.366 78.145L304.698 78.5187L304.699 78.5176L304.366 78.145ZM296.006 78.145L295.642 78.4877L295.652 78.4987L295.663 78.5091L296.006 78.145ZM294.486 73.87H294.986C294.986 72.2139 295.512 70.9664 296.528 70.0637L296.196 69.69L295.864 69.3163C294.599 70.4403 293.986 71.9794 293.986 73.87H294.486ZM296.196 69.69L296.529 70.0626C297.647 69.0624 298.892 68.575 300.281 68.575V68.075V67.575C298.63 67.575 297.151 68.1643 295.862 69.3174L296.196 69.69ZM300.281 68.075V68.575C302.015 68.575 303.295 69.0797 304.192 70.0327L304.556 69.69L304.92 69.3473C303.79 68.1469 302.22 67.575 300.281 67.575V68.075ZM304.556 69.69L304.213 70.0541C305.17 70.9543 305.671 72.2048 305.671 73.87H306.171H306.671C306.671 71.9885 306.095 70.4523 304.898 69.3259L304.556 69.69ZM306.171 73.87H305.671C305.671 75.5167 305.119 76.8005 304.032 77.7724L304.366 78.145L304.699 78.5176C306.02 77.3362 306.671 75.7699 306.671 73.87H306.171ZM304.366 78.145L304.034 77.7713C302.989 78.6999 301.747 79.165 300.281 79.165V79.665V80.165C301.981 80.165 303.463 79.6167 304.698 78.5187L304.366 78.145ZM300.281 79.665V79.165C298.608 79.165 297.314 78.6901 296.348 77.7809L296.006 78.145L295.663 78.5091C296.85 79.6266 298.407 80.165 300.281 80.165V79.665ZM296.006 78.145L296.37 77.8023C295.461 76.8363 294.986 75.5429 294.986 73.87H294.486H293.986C293.986 75.7438 294.524 77.3004 295.642 78.4877L296.006 78.145Z" fill="#14B8A6"/>
</svg>
