<svg width="16" height="16" viewBox="0 0 16 16" fill="none" xmlns="http://www.w3.org/2000/svg">
<rect width="16" height="16" rx="2" fill="#14B8A6"/>
<g clip-path="url(#clip0_984_444)">
<path d="M6.95446 8.97844H7.36242L7.35584 10.1151H4V9.76487L4.63827 9.61287L4.53957 9.75826V5.86574L4.63169 6.00452L4 5.87235V5.52209L5.19758 5.48904H7.27688V6.57948H6.8755L6.75048 5.88557L6.88208 5.9847H5.09887L5.21074 5.87235V7.62365L5.09887 7.5113H6.78996V7.99374H5.09887L5.21074 7.86157V9.73183L5.09887 9.61948H6.96762L6.82944 9.73183L6.95446 8.97844ZM9.24788 10.1812C9.00222 10.1812 8.78069 10.1151 8.58329 9.98296C8.38588 9.84638 8.23016 9.64812 8.1161 9.38817C8.00643 9.12383 7.9516 8.80221 7.9516 8.42331C7.9516 7.79768 8.10952 7.32847 8.42536 7.01565C8.74121 6.70284 9.17988 6.54644 9.74138 6.54644C9.85105 6.54644 9.96291 6.55525 10.077 6.57287C10.1954 6.58609 10.316 6.60812 10.4389 6.63896L10.3073 6.71165V5.46261L10.3731 5.54191L9.78744 5.39652V5.04626L10.9653 5V9.72522L10.8797 9.61948L11.4588 9.75826V10.1085L10.4586 10.1548L10.3665 9.58644L10.4389 9.61287C10.2415 9.80232 10.0441 9.94551 9.84666 10.0424C9.65365 10.135 9.45405 10.1812 9.24788 10.1812ZM9.49134 9.68557C9.63172 9.68557 9.77648 9.64812 9.92562 9.57322C10.0792 9.49832 10.2349 9.38597 10.3928 9.23617L10.3073 9.44765V6.98261L10.3928 7.14122C10.1472 7.06632 9.92343 7.02887 9.72164 7.02887C9.36193 7.02887 9.08995 7.14783 8.90571 7.38574C8.72585 7.61925 8.63593 7.94527 8.63593 8.36383C8.63593 8.63699 8.67102 8.8727 8.74121 9.07096C8.81578 9.26922 8.91668 9.42122 9.04389 9.52696C9.17549 9.6327 9.32464 9.68557 9.49134 9.68557ZM11.9107 9.75826C11.9107 9.6349 11.9502 9.53797 12.0292 9.46748C12.1125 9.39258 12.2068 9.35513 12.3121 9.35513C12.4393 9.35513 12.538 9.39258 12.6082 9.46748C12.6827 9.53797 12.7201 9.6349 12.7201 9.75826C12.7201 9.88162 12.6784 9.98075 12.595 10.0557C12.5161 10.1261 12.4217 10.1614 12.3121 10.1614C12.1892 10.1614 12.0905 10.1261 12.016 10.0557C11.9458 9.98075 11.9107 9.88162 11.9107 9.75826Z" fill="white"/>
</g>
<defs>
<clipPath id="clip0_984_444">
<rect width="8.79654" height="5.21739" fill="white" transform="translate(4.08661 5.35651)"/>
</clipPath>
</defs>
</svg>
